<?xml version="1.0" standalone="no"?>
<!DOCTYPE svg PUBLIC "-//W3C//DTD SVG 20010904//EN"
 "http://www.w3.org/TR/2001/REC-SVG-20010904/DTD/svg10.dtd">
<svg version="1.0" xmlns="http://www.w3.org/2000/svg"
 width="500.000000pt" height="500.000000pt" viewBox="0 0 500.000000 500.000000"
 preserveAspectRatio="xMidYMid meet">

<g transform="translate(0.000000,500.000000) scale(0.100000,-0.100000)"
fill="#000000" stroke="none">
<path d="M1176 4048 c-3 -13 -22 -81 -41 -153 -32 -125 -64 -240 -107 -390
-11 -38 -51 -196 -89 -350 -39 -154 -81 -323 -94 -375 -13 -52 -20 -99 -16
-103 4 -4 39 -12 77 -18 148 -22 263 -41 359 -61 55 -11 107 -21 115 -23 205
-41 456 -141 612 -244 142 -94 268 -222 359 -367 48 -75 57 -84 84 -84 38 1
53 13 95 80 164 263 394 432 752 552 66 21 149 46 186 54 137 29 259 52 337
64 271 39 257 35 251 68 -3 15 -12 54 -21 87 -9 33 -25 94 -35 135 -10 41 -26
102 -35 135 -9 33 -25 94 -35 135 -25 107 -108 427 -124 480 -8 25 -26 90 -41
145 -45 166 -67 240 -75 248 -10 11 -240 -8 -380 -32 -290 -50 -528 -171 -691
-350 -75 -82 -145 -207 -128 -228 17 -20 22 -17 54 34 73 117 243 261 392 336
71 36 209 88 278 105 145 37 338 53 367 30 9 -7 30 -68 48 -138 17 -69 40
-154 51 -190 10 -36 21 -76 23 -90 3 -14 10 -41 15 -60 5 -19 26 -98 46 -175
20 -77 38 -147 40 -155 2 -8 18 -67 35 -130 36 -131 46 -185 33 -193 -4 -3
-66 -15 -138 -27 -71 -12 -143 -25 -160 -30 -16 -5 -55 -14 -85 -20 -98 -21
-261 -72 -358 -111 -238 -97 -417 -228 -528 -387 -59 -85 -79 -125 -123 -251
-20 -58 -40 -106 -45 -106 -4 0 -16 32 -26 70 -38 149 -96 248 -232 395 -29
32 -133 120 -142 120 -3 0 -27 15 -53 34 -56 39 -181 106 -199 106 -7 0 -14 4
-16 9 -3 8 -224 88 -265 95 -10 2 -38 10 -63 16 -25 7 -63 17 -85 21 -22 4
-62 13 -90 19 -27 6 -97 19 -155 29 l-105 17 1 30 c1 16 9 56 18 89 21 72 50
185 117 445 28 107 65 251 83 320 18 69 39 150 46 180 7 30 17 61 23 68 14 18
134 15 262 -7 194 -34 358 -98 513 -203 89 -60 247 -214 292 -285 18 -29 37
-50 41 -47 10 6 3 44 -11 58 -5 5 -10 15 -10 22 0 56 -203 281 -307 340 -27
15 -55 33 -63 40 -27 22 -134 72 -222 103 -127 43 -243 65 -438 81 -165 14
-167 14 -174 -12z"/>
<path d="M3926 3623 c1 -15 3 -28 4 -28 1 0 4 -11 6 -25 3 -13 25 -92 50 -174
24 -83 47 -166 50 -185 3 -19 14 -62 24 -95 9 -34 23 -88 30 -121 7 -33 19
-82 27 -110 8 -27 19 -66 23 -85 4 -19 18 -71 30 -115 33 -121 34 -133 13
-139 -10 -2 -43 -7 -73 -11 -106 -11 -375 -45 -437 -55 -35 -5 -89 -14 -120
-19 -233 -37 -489 -131 -650 -239 -115 -77 -244 -206 -238 -238 2 -11 4 -21 4
-23 1 -2 10 4 21 14 11 10 17 22 13 28 -3 6 -1 7 5 3 7 -4 31 6 54 22 96 66
237 125 420 175 67 19 141 38 163 41 22 4 78 14 125 22 154 28 284 45 390 54
151 12 293 28 342 40 24 5 62 10 86 10 25 0 42 5 42 11 0 12 -81 305 -101 366
-5 18 -12 40 -14 50 -3 10 -15 59 -28 108 -79 296 -123 449 -138 477 -5 10 -9
23 -9 29 0 22 -82 204 -99 222 -17 18 -18 17 -15 -10z"/>
<path d="M897 3563 c-34 -77 -103 -273 -122 -348 -5 -16 -10 -36 -12 -42 -1
-7 -5 -19 -6 -25 -2 -7 -7 -26 -11 -43 -4 -16 -12 -41 -16 -55 -5 -14 -11 -38
-14 -55 -2 -16 -11 -50 -20 -75 -16 -47 -72 -262 -81 -308 -2 -15 -14 -54 -25
-86 -12 -33 -24 -80 -27 -106 l-5 -46 103 -12 c57 -7 131 -15 164 -18 33 -3
87 -10 120 -15 33 -5 80 -9 104 -9 24 0 60 -4 80 -9 20 -5 79 -15 131 -21 332
-38 675 -138 828 -241 24 -16 47 -29 53 -29 5 0 9 -4 9 -10 0 -5 7 -10 15 -10
8 0 15 -3 15 -7 0 -5 11 -9 25 -9 l25 -2 -19 27 c-46 63 -245 231 -275 231 -9
0 -16 4 -16 8 0 11 -171 100 -238 124 -59 20 -251 71 -337 89 -91 19 -431 64
-558 75 -53 4 -91 12 -93 19 -6 16 101 458 202 835 10 38 54 193 60 213 3 9 0
17 -6 17 -6 0 -9 -4 -6 -9 3 -5 -1 -11 -9 -14 -9 -4 -12 -1 -8 9 3 7 3 14 0
14 -2 0 -16 -26 -30 -57z"/>
<path d="M1360 2058 c-58 -4 -143 -14 -190 -23 -47 -9 -116 -20 -155 -25 -38
-6 -95 -15 -125 -21 -72 -13 -128 -23 -285 -50 -161 -27 -205 -37 -205 -48 0
-5 14 -11 31 -15 17 -3 389 -6 826 -6 493 0 801 -4 812 -10 10 -5 33 -32 51
-60 40 -63 115 -130 177 -161 41 -19 64 -23 153 -23 89 -1 111 3 146 21 59 31
140 108 183 172 l37 56 829 5 c457 3 831 6 833 8 18 17 -31 34 -168 57 -52 9
-126 22 -165 30 -104 20 -236 44 -270 49 -16 3 -61 10 -100 17 -230 38 -595
48 -725 19 -163 -36 -283 -95 -345 -169 -60 -72 -124 -130 -160 -146 -44 -18
-142 -20 -196 -4 -27 9 -63 38 -124 100 -107 110 -150 140 -256 179 -148 55
-317 68 -609 48z"/>
<path d="M132 1219 l3 -164 39 -3 c49 -4 58 9 50 74 -7 58 9 80 51 72 14 -3
28 -1 31 4 3 5 13 1 21 -9 8 -10 11 -11 7 -3 -7 12 -5 13 8 3 18 -15 28 -7 28
22 0 20 -5 22 -67 24 -36 1 -70 4 -75 7 -4 3 -8 23 -8 45 l0 39 79 0 c60 0 80
3 84 15 9 23 -6 27 -134 32 l-120 6 3 -164z m195 5 c-3 -3 -12 -4 -19 -1 -8 3
-5 6 6 6 11 1 17 -2 13 -5z"/>
<path d="M798 1355 c-5 -23 -2 -25 32 -25 29 0 39 5 43 19 6 26 0 31 -39 31
-26 0 -33 -5 -36 -25z"/>
<path d="M1714 1373 c-16 -3 -20 -9 -17 -24 7 -24 61 -27 70 -3 5 14 -13 36
-27 32 -3 0 -15 -3 -26 -5z"/>
<path d="M2756 1370 c-2 -3 -2 -18 -1 -35 1 -16 3 -88 3 -158 2 -98 5 -128 15
-124 6 2 21 1 33 -4 18 -6 21 -4 19 22 -1 16 -2 92 -3 169 l-2 140 -31 -2
c-17 -1 -32 -5 -33 -8z"/>
<path d="M2941 1372 c-7 -2 -11 -53 -11 -162 l0 -158 30 -4 c17 -3 32 -2 35 1
3 3 5 78 4 168 l-1 163 -23 -2 c-12 -1 -28 -4 -34 -6z"/>
<path d="M3092 1371 c-11 -7 -10 -9 3 -15 9 -3 13 -10 10 -16 -4 -6 8 -10 29
-10 32 0 36 3 36 25 0 22 -4 25 -32 25 -18 0 -39 -4 -46 -9z"/>
<path d="M1181 1215 c2 -136 4 -155 19 -155 9 0 21 -5 27 -11 21 -21 35 1 28
47 -10 66 3 113 31 120 13 3 24 11 24 16 0 6 6 5 15 -2 8 -7 15 -9 16 -4 0 5
4 0 9 -11 5 -11 9 -50 9 -86 1 -59 4 -67 25 -78 13 -8 28 -11 33 -8 11 7 10
203 0 214 -5 4 -18 1 -30 -6 -20 -13 -21 -13 -8 3 18 22 9 30 -34 28 -40 -2
-58 -9 -50 -22 7 -11 -23 -6 -35 6 -5 5 -10 30 -11 57 -3 46 -3 47 -36 47
l-33 0 1 -155z"/>
<path d="M1016 1353 c-4 -5 -13 -8 -19 -8 -6 0 -14 -12 -18 -27 -4 -15 -14
-37 -23 -50 -15 -21 -15 -24 3 -38 15 -12 20 -30 22 -85 3 -70 15 -108 31 -98
5 2 3 12 -4 21 -12 15 -11 16 4 3 10 -7 16 -17 13 -21 -2 -4 12 -6 33 -5 42 3
57 29 23 40 -25 8 -33 36 -29 96 3 38 7 45 28 49 34 7 37 50 4 50 -24 0 -38
14 -40 43 -3 33 -4 37 -12 37 -5 0 -12 -3 -16 -7z"/>
<path d="M2233 1350 c-20 -8 -28 -26 -24 -52 0 -4 -8 -12 -19 -18 -11 -6 -20
-17 -20 -25 0 -15 35 -57 42 -50 2 2 3 -24 3 -58 -1 -34 1 -69 3 -79 5 -19 43
-31 56 -18 14 14 39 12 30 -1 -4 -7 -2 -10 5 -8 7 3 12 8 11 13 -1 5 4 13 12
17 10 7 10 9 -3 9 -9 0 -26 9 -39 20 -18 16 -20 23 -11 34 9 10 9 16 1 21 -6
4 -9 13 -6 21 3 8 0 14 -6 14 -6 0 1 9 15 20 14 11 32 20 40 20 16 0 30 27 21
41 -3 5 -14 9 -25 9 -11 0 -26 6 -32 13 -17 17 -20 47 -5 47 9 0 9 3 -2 10
-18 11 -18 11 -47 0z"/>
<path d="M510 1282 c-23 -3 -50 -26 -50 -43 0 -8 72 -5 116 6 34 8 70 -17 57
-38 -4 -7 -6 -32 -5 -57 2 -41 0 -47 -28 -64 -44 -26 -80 -15 -80 24 0 22 5
30 18 30 26 1 67 26 54 34 -13 8 -62 -3 -62 -13 0 -4 -12 -6 -27 -4 -38 5 -52
-7 -53 -42 -1 -57 2 -66 17 -53 11 9 12 7 6 -7 -5 -15 -3 -17 13 -11 10 5 40
9 66 10 25 0 44 4 41 9 -6 10 1 9 33 -4 16 -5 39 -8 51 -4 22 5 23 10 23 86 0
49 -5 90 -14 107 -13 25 -20 27 -77 30 -35 2 -66 4 -69 6 -3 1 -16 0 -30 -2z"/>
<path d="M1990 1276 c-14 -7 -23 -19 -22 -27 2 -8 0 -11 -3 -7 -4 4 -16 3 -26
-3 -14 -7 -17 -6 -14 3 9 24 -11 41 -39 34 -25 -6 -26 -9 -26 -85 0 -44 -3
-86 -6 -94 -7 -20 24 -49 50 -45 19 3 21 9 19 70 -1 54 2 70 17 83 18 16 65
24 76 13 2 -3 8 -41 12 -83 7 -75 8 -79 34 -86 16 -4 30 -3 33 1 3 5 6 50 6
101 1 77 -2 95 -18 111 -25 25 -62 30 -93 14z"/>
<path d="M2472 1278 c-41 -11 -65 -48 -67 -106 -3 -58 11 -99 36 -107 10 -4
19 -10 19 -14 0 -4 24 -4 54 -1 33 3 52 2 49 -3 -3 -5 0 -7 8 -5 8 3 13 11 11
17 -1 7 2 10 8 6 6 -3 8 -11 5 -16 -10 -15 22 -10 35 6 7 8 9 15 4 15 -5 0 -2
5 6 10 10 7 -10 8 -62 4 -71 -4 -77 -3 -92 18 -23 32 -20 55 7 55 12 1 60 1
106 2 l84 1 -7 32 c-6 28 -46 81 -46 61 0 -4 -4 -2 -9 6 -12 18 -107 30 -149
19z m116 -44 c6 -7 12 -17 12 -23 0 -6 6 -11 13 -11 36 -1 -32 -22 -79 -24
-60 -3 -66 0 -57 32 9 34 83 52 111 26z"/>
<path d="M3294 1280 c-29 -11 -35 -23 -38 -73 -2 -23 -5 -46 -7 -52 -2 -5 0
-23 3 -40 5 -23 16 -34 48 -48 41 -17 43 -17 81 1 22 11 41 17 43 13 8 -15 -3
-84 -16 -92 -18 -12 -65 -11 -73 1 -3 6 -22 10 -41 10 -19 0 -34 -4 -34 -10 0
-5 4 -10 9 -10 5 0 12 -9 16 -19 4 -14 16 -20 38 -21 100 -3 121 -1 146 18 26
19 26 20 29 171 l3 151 -36 0 c-32 0 -40 -8 -36 -33 1 -4 -11 1 -26 12 -33 24
-79 33 -109 21z m111 -58 c12 -9 17 -29 17 -65 -1 -42 -19 -58 -62 -55 -36 3
-37 4 -39 45 -3 56 13 83 47 83 15 0 32 -4 37 -8z"/>
<path d="M3634 1272 c-37 -19 -42 -28 -36 -58 2 -14 0 -24 -7 -24 -19 0 -12
-73 9 -108 18 -29 25 -33 46 -28 17 5 23 3 19 -4 -3 -5 -1 -10 4 -10 6 0 11 4
11 8 0 5 19 7 43 5 75 -6 97 -3 90 13 -2 7 -11 10 -18 8 -7 -3 -16 -1 -19 4
-3 5 -25 8 -48 5 -62 -7 -79 10 -80 76 0 65 14 81 75 88 43 5 46 4 53 -21 10
-42 0 -54 -48 -54 -67 0 -82 -1 -74 -9 3 -4 48 -6 99 -6 l92 1 -2 34 c-2 35
-47 82 -70 74 -6 -3 -13 -1 -15 3 -6 16 -95 18 -124 3z"/>
<path d="M4325 1279 c-35 -10 -67 -39 -61 -56 3 -7 2 -14 -2 -17 -9 -5 -8 -83
1 -92 3 -3 3 -12 0 -20 -6 -16 54 -55 73 -47 8 3 20 1 27 -4 17 -13 59 -14 51
-1 -4 6 1 8 14 4 30 -10 81 20 82 47 0 5 -4 6 -9 2 -5 -3 -13 0 -17 6 -4 7 -3
9 2 6 6 -3 16 -2 24 4 11 6 2 9 -27 9 -24 0 -43 -3 -43 -8 0 -19 -39 -31 -74
-21 -29 8 -36 16 -41 42 -9 45 9 85 42 97 16 6 36 14 45 20 14 8 16 6 11 -7
-5 -12 -2 -15 9 -11 8 4 21 2 29 -4 11 -7 9 -8 -6 -3 -16 5 -17 4 -8 -6 10
-10 17 -9 32 5 19 17 19 18 0 37 -22 22 -104 31 -154 18z"/>
<path d="M4680 1283 c-14 -2 -35 -9 -46 -15 -24 -11 -48 -54 -39 -69 4 -5 1
-9 -4 -9 -14 0 -14 -56 0 -83 18 -33 48 -59 61 -51 7 4 8 3 4 -4 -4 -7 -1 -12
8 -12 8 0 17 6 19 13 3 6 6 8 6 2 1 -11 115 -14 126 -3 4 4 5 15 1 24 -5 14
-9 14 -23 3 -10 -9 -14 -9 -10 -2 6 9 -4 11 -41 6 -52 -6 -67 4 -74 47 l-3 25
97 0 98 0 0 31 c0 24 -9 40 -35 63 -20 17 -43 32 -53 32 -9 1 -28 2 -42 3 -14
2 -36 1 -50 -1z m93 -46 c15 -10 16 -18 8 -38 -9 -24 -13 -26 -63 -23 -81 5
-83 5 -64 19 9 7 16 16 16 22 0 29 72 43 103 20z"/>
<path d="M823 1270 c-22 -9 -23 -15 -23 -109 0 -55 3 -102 8 -104 4 -3 20 -7
37 -8 23 -3 30 0 29 14 -1 9 -2 62 -3 117 -1 105 -3 108 -48 90z"/>
<path d="M3110 1265 c-14 -8 -20 -14 -15 -15 7 0 10 -35 8 -95 -3 -96 -1 -101
36 -96 7 2 10 -2 6 -8 -4 -7 0 -8 10 -5 12 5 15 19 14 65 -1 32 -6 56 -11 53
-4 -3 -8 6 -8 20 0 13 -4 36 -10 50 -8 21 -7 24 8 19 15 -6 15 -5 3 10 -7 9
-14 17 -15 17 0 -1 -12 -7 -26 -15z"/>
<path d="M3932 1168 l3 -111 29 -10 c39 -13 46 2 39 83 -6 71 0 82 48 94 38 9
48 -9 51 -94 l3 -75 35 0 35 0 1 75 c1 123 -7 137 -85 146 -27 3 -42 -1 -58
-16 -20 -18 -23 -18 -31 -3 -5 9 -24 18 -41 19 l-32 4 3 -112z"/>
<path d="M1700 1160 l0 -110 36 0 36 0 -6 58 c-3 31 -7 81 -9 109 -2 50 -3 53
-29 53 l-28 0 0 -110z"/>
</g>
</svg>
